<svg width="14" height="14" viewBox="0 0 14 14" fill="none" xmlns="http://www.w3.org/2000/svg">
<path d="M3.344 8.54871L2.35066 12.85C2.3199 12.9803 2.32914 13.1168 2.37716 13.2417C2.42518 13.3666 2.50976 13.4741 2.61984 13.5503C2.72993 13.6264 2.86041 13.6675 2.99423 13.6683C3.12806 13.6691 3.25902 13.6295 3.37 13.5547L7 11.1347L10.63 13.5547C10.7436 13.6301 10.8775 13.6689 11.0138 13.6659C11.15 13.6629 11.2821 13.6183 11.3923 13.538C11.5024 13.4577 11.5853 13.3456 11.6298 13.2168C11.6744 13.0879 11.6784 12.9486 11.6413 12.8174L10.422 8.55071L13.446 5.82938C13.5428 5.74217 13.612 5.62848 13.6449 5.50238C13.6779 5.37628 13.6731 5.2433 13.6313 5.11987C13.5894 4.99644 13.5123 4.88799 13.4095 4.80793C13.3066 4.72786 13.1826 4.67969 13.0527 4.66938L9.252 4.36671L7.60733 0.726042C7.55489 0.608813 7.46964 0.509266 7.36187 0.439416C7.2541 0.369565 7.12842 0.332397 7 0.332397C6.87157 0.332397 6.74589 0.369565 6.63812 0.439416C6.53036 0.509266 6.44511 0.608813 6.39266 0.726042L4.748 4.36671L0.947331 4.66871C0.819634 4.67883 0.697556 4.72552 0.5957 4.8032C0.493845 4.88088 0.416526 4.98626 0.372993 5.10673C0.329459 5.2272 0.321556 5.35766 0.350227 5.48251C0.378899 5.60736 0.442931 5.7213 0.534664 5.81071L3.344 8.54871Z" fill="white"/>
</svg>
