<svg aria-hidden="true" style="position:absolute;width:0;height:0;overflow:hidden" xmlns="http://www.w3.org/2000/svg">
    <defs>
        <symbol id="icon-arrow" viewBox="0 0 32 32">
            <path d="M12.586 27.414l-10-10c-0.781-0.781-0.781-2.047 0-2.828l10-10c0.781-0.781 2.047-0.781 2.828 0s0.781 2.047 0 2.828l-6.586 6.586h19.172c1.105 0 2 0.895 2 2s-0.895 2-2 2h-19.172l6.586 6.586c0.39 0.39 0.586 0.902 0.586 1.414s-0.195 1.024-0.586 1.414c-0.781 0.781-2.047 0.781-2.828 0z"></path>
        </symbol>

        <symbol id="icon-instagram" viewBox="0 0 32 32">
            <path fill="#000" style="fill: var(--color1, #000)" d="M8.114 31.887c-1.305-0.015-2.549-0.26-3.699-0.696l0.074 0.025c-0.88-0.331-1.629-0.828-2.243-1.458l-0.001-0.001c-0.634-0.614-1.132-1.364-1.448-2.203l-0.014-0.041c-0.411-1.076-0.655-2.319-0.67-3.618l-0-0.006c-0.095-2.057-0.114-2.675-0.114-7.888s0.021-5.828 0.113-7.887c0.017-1.305 0.261-2.548 0.696-3.697l-0.025 0.075c0.331-0.88 0.829-1.63 1.459-2.244l0.001-0.001c0.614-0.633 1.364-1.131 2.203-1.446l0.042-0.014c1.076-0.411 2.319-0.656 3.618-0.671l0.006-0c2.058-0.094 2.676-0.113 7.886-0.113s5.828 0.021 7.887 0.113c1.305 0.016 2.549 0.261 3.698 0.696l-0.075-0.025c0.88 0.33 1.63 0.827 2.243 1.458l0.001 0.001c0.633 0.615 1.13 1.365 1.447 2.203l0.014 0.042c0.411 1.076 0.656 2.319 0.671 3.618l0 0.006c0.094 2.059 0.113 2.675 0.113 7.887s-0.019 5.828-0.113 7.887c-0.016 1.305-0.261 2.549-0.696 3.699l0.025-0.074c-0.671 1.707-1.997 3.033-3.661 3.689l-0.044 0.015c-1.076 0.411-2.319 0.656-3.618 0.671l-0.006 0c-2.057 0.094-2.675 0.113-7.887 0.113s-5.828-0.018-7.885-0.113z"></path>
            <path fill="#000" style="fill: var(--color1, #000)" d="M8.114 31.887c-1.305-0.015-2.549-0.26-3.699-0.696l0.074 0.025c-0.88-0.331-1.629-0.828-2.243-1.458l-0.001-0.001c-0.634-0.614-1.132-1.364-1.448-2.203l-0.014-0.041c-0.411-1.076-0.655-2.319-0.67-3.618l-0-0.006c-0.095-2.057-0.114-2.675-0.114-7.888s0.021-5.828 0.113-7.887c0.017-1.305 0.261-2.548 0.696-3.697l-0.025 0.075c0.331-0.88 0.829-1.63 1.459-2.244l0.001-0.001c0.614-0.633 1.364-1.131 2.203-1.446l0.042-0.014c1.076-0.411 2.319-0.656 3.618-0.671l0.006-0c2.058-0.094 2.676-0.113 7.886-0.113s5.828 0.021 7.887 0.113c1.305 0.016 2.549 0.261 3.698 0.696l-0.075-0.025c0.88 0.33 1.63 0.827 2.243 1.458l0.001 0.001c0.633 0.615 1.13 1.365 1.447 2.203l0.014 0.042c0.411 1.076 0.656 2.319 0.671 3.618l0 0.006c0.094 2.059 0.113 2.675 0.113 7.887s-0.019 5.828-0.113 7.887c-0.016 1.305-0.261 2.549-0.696 3.699l0.025-0.074c-0.671 1.707-1.997 3.033-3.661 3.689l-0.044 0.015c-1.076 0.411-2.319 0.656-3.618 0.671l-0.006 0c-2.057 0.094-2.675 0.113-7.887 0.113s-5.828-0.018-7.885-0.113z"></path>
            <path fill="#fff" style="fill: var(--color2, #fff)" d="M12.071 16.068c0-2.188 1.774-3.962 3.963-3.962s3.963 1.774 3.963 3.963-1.774 3.963-3.963 3.963c-0 0-0 0-0.001 0h0c-2.188-0-3.962-1.774-3.962-3.963 0-0 0-0 0-0v0zM9.929 16.068c0 3.371 2.733 6.104 6.104 6.104s6.104-2.733 6.104-6.104c0-3.371-2.733-6.104-6.104-6.104v0c-0 0-0 0-0 0-3.371 0-6.104 2.733-6.104 6.104 0 0 0 0 0 0v-0zM20.953 9.722c0 0 0 0 0 0.001 0 0.788 0.639 1.427 1.427 1.427s1.427-0.639 1.427-1.427c0-0.788-0.638-1.426-1.426-1.427h-0c-0.787 0-1.426 0.638-1.427 1.426v0zM11.231 25.745c-0.795-0.009-1.553-0.158-2.253-0.423l0.045 0.015c-1.040-0.409-1.848-1.216-2.247-2.229l-0.009-0.027c-0.25-0.655-0.399-1.413-0.408-2.204l-0-0.004c-0.058-1.253-0.069-1.63-0.069-4.804s0.013-3.55 0.069-4.804c0.010-0.795 0.159-1.553 0.423-2.253l-0.015 0.046c0.408-1.040 1.216-1.848 2.23-2.247l0.027-0.009c0.655-0.25 1.413-0.399 2.204-0.408l0.004-0c1.253-0.058 1.63-0.069 4.803-0.069s3.55 0.012 4.804 0.069c0.795 0.010 1.553 0.159 2.253 0.423l-0.046-0.015c1.040 0.409 1.848 1.216 2.247 2.23l0.009 0.027c0.25 0.655 0.399 1.413 0.408 2.204l0 0.004c0.058 1.255 0.069 1.63 0.069 4.804s-0.012 3.55-0.069 4.804c-0.010 0.795-0.158 1.552-0.423 2.253l0.015-0.045c-0.409 1.040-1.217 1.847-2.23 2.246l-0.027 0.009c-0.655 0.25-1.413 0.399-2.204 0.408l-0.004 0c-1.253 0.058-1.63 0.069-4.804 0.069s-3.55-0.012-4.803-0.069zM11.133 4.253c-1.042 0.021-2.031 0.222-2.946 0.572l0.060-0.020c-1.602 0.631-2.846 1.875-3.463 3.436l-0.014 0.041c-0.33 0.855-0.531 1.844-0.552 2.877l-0 0.009c-0.059 1.267-0.072 1.673-0.072 4.901s0.013 3.634 0.072 4.901c0.021 1.042 0.222 2.031 0.572 2.946l-0.020-0.060c0.631 1.602 1.875 2.846 3.436 3.463l0.041 0.014c0.855 0.33 1.844 0.531 2.877 0.552l0.009 0c1.268 0.058 1.673 0.072 4.901 0.072s3.634-0.014 4.901-0.072c1.042-0.021 2.031-0.222 2.946-0.572l-0.060 0.020c1.602-0.631 2.846-1.875 3.463-3.436l0.014-0.041c0.331-0.855 0.532-1.844 0.552-2.878l0-0.009c0.058-1.268 0.071-1.673 0.071-4.901s-0.014-3.634-0.071-4.901c-0.021-1.042-0.222-2.031-0.572-2.946l0.020 0.060c-0.631-1.601-1.875-2.845-3.435-3.463l-0.041-0.014c-0.855-0.331-1.844-0.531-2.877-0.552l-0.009-0c-1.268-0.058-1.673-0.072-4.901-0.072s-3.634 0.013-4.902 0.072z"></path>
        </symbol>

        <symbol id="icon-tiktok" viewBox="0 0 34 34">
            <path d="M16.708 0.027c1.745-0.027 3.48-0.011 5.213-0.027 0.105 2.041 0.839 4.12 2.333 5.563 1.491 1.479 3.6 2.156 5.652 2.385v5.369c-1.923-0.063-3.855-0.463-5.6-1.291-0.76-0.344-1.468-0.787-2.161-1.24-0.009 3.896 0.016 7.787-0.025 11.667-0.104 1.864-0.719 3.719-1.803 5.255-1.744 2.557-4.771 4.224-7.88 4.276-1.907 0.109-3.812-0.411-5.437-1.369-2.693-1.588-4.588-4.495-4.864-7.615-0.032-0.667-0.043-1.333-0.016-1.984 0.24-2.537 1.495-4.964 3.443-6.615 2.208-1.923 5.301-2.839 8.197-2.297 0.027 1.975-0.052 3.948-0.052 5.923-1.323-0.428-2.869-0.308-4.025 0.495-0.844 0.547-1.485 1.385-1.819 2.333-0.276 0.676-0.197 1.427-0.181 2.145 0.317 2.188 2.421 4.027 4.667 3.828 1.489-0.016 2.916-0.88 3.692-2.145 0.251-0.443 0.532-0.896 0.547-1.417 0.131-2.385 0.079-4.76 0.095-7.145 0.011-5.375-0.016-10.735 0.025-16.093z"></path>
        </symbol>

        <symbol id="icon-twitch" viewBox="0 0 32 32">
            <path fill="#6441a4" style="fill: var(--color10, #6441a4)" d="M0 0h32v32h-32v-32z"></path>
            <path fill="#fff" style="fill: var(--color2, #fff)" d="M7.188 6.313l-1.375 3.5v14.25h4.875v2.625h2.75l2.563-2.625h3.938l5.313-5.313v-12.438zM23.438 17.875l-3 3h-4.875l-2.625 2.625v-2.625h-4.063v-12.75h14.563zM20.438 11.625v5.313h-1.875v-5.313zM15.563 11.625v5.313h-1.813v-5.313z"></path>
        </symbol>

        <symbol id="icon-twitter" viewBox="0 0 32 32">
            <path fill="#00aade" style="fill: var(--color13, #00aade)" d="M26.4 32h-20.8c-3.093 0-5.6-2.507-5.6-5.6v-20.8c0-3.093 2.507-5.6 5.6-5.6h20.8c3.093 0 5.6 2.507 5.6 5.6v20.8c0 3.093-2.507 5.6-5.6 5.6z"></path>
            <path fill="#fff" style="fill: var(--color2, #fff)" d="M23.6 10.4c0.957-0.5 1.675-1.348 1.992-2.372l0.008-0.028c-0.8 0.8-2.5 1.065-2.5 1.065-0.739-0.903-1.854-1.475-3.102-1.475-2.209 0-4 1.791-4 4 0 0.432 0.069 0.848 0.195 1.238l-0.008-0.028h-0.185c-3.41-0.233-6.392-1.891-8.382-4.377l-0.018-0.023s-2.4 3.2 1.2 5.6c0 0-1.6 0-2-0.4 0 0-0.4 2.4 3.2 4-0.235 0.11-0.51 0.174-0.8 0.174s-0.565-0.064-0.812-0.179l0.012 0.005c0 1.545 1.61 2.8 3.6 2.8 0 1.105-2.685 2-6 2 5.2 3.6 17.6 2.8 18.4-10.8l2-2z"></path>
        </symbol>

        <symbol id="icon-facebook" viewBox="0 0 32 32">
         <path fill="#4460a0" style="fill: var(--color3, #4460a0)" d="M17.092 32h-15.326c-0.976 0-1.766-0.791-1.766-1.766v-28.468c0-0.976 0.79-1.766 1.766-1.766h28.468c0.975 0 1.766 0.79 1.766 1.766v28.468c0 0.976-0.791 1.766-1.766 1.766h-8.154v-12.392h4.16l0.623-4.829h-4.782v-3.083c0-1.398 0.388-2.351 2.393-2.351l2.557-0.001v-4.319c-0.442-0.059-1.96-0.19-3.727-0.19-3.687 0-6.212 2.251-6.212 6.384v3.562h-4.17v4.83h4.17v12.392z"></path>
        </symbol>

        <symbol id="icon-telegram" viewBox="0 0 32 32">
            <path fill="#37aee2" style="fill: var(--color6, #37aee2)" d="M0 0h32v32h-32v-32z"></path>
            <path fill="#c8daea" style="fill: var(--color7, #c8daea)" d="M12.438 25.25c-0.688 0-0.625-0.25-0.813-0.875l-2-6.563 15.313-9z"></path>
            <path fill="#a9c9dd" style="fill: var(--color8, #a9c9dd)" d="M12.438 25.25c0.438 0 0.688-0.25 1-0.5l2.813-2.688-3.5-2.125z"></path>
            <path fill="#f6fbfe" style="fill: var(--color9, #f6fbfe)" d="M12.75 19.938l8.438 6.188c0.875 0.563 1.625 0.25 1.875-0.875l3.438-16.125c0.313-1.375-0.563-2-1.5-1.563l-20.063 7.75c-1.313 0.5-1.313 1.313-0.25 1.625l5.188 1.625 11.875-7.563c0.563-0.313 1.063-0.188 0.688 0.25z"></path>
        </symbol>

        <symbol id="icon-linkedin" viewBox="0 0 32 32">
            <path fill="#379ad0" style="fill: var(--color11, #379ad0)" d="M3.025 0h25.95c1.671 0 3.025 1.354 3.025 3.025v25.95c0 1.671-1.354 3.025-3.025 3.025h-25.95c-1.671 0-3.025-1.354-3.025-3.025v-25.95c0-1.671 1.354-3.025 3.025-3.025z"></path>
            <path fill="#fefefe" style="fill: var(--color12, #fefefe)" d="M6.209 16.239v9.552h4.617v-13.055h-4.617z"></path>
            <path fill="#fefefe" style="fill: var(--color12, #fefefe)" d="M8.597 6.209c-1.274 0-2.388 1.114-2.388 2.388 0 1.114 1.114 2.229 2.388 2.229 1.114 0 2.229-1.114 2.229-2.229 0-1.274-1.114-2.388-2.229-2.388z"></path>
            <path fill="#fefefe" style="fill: var(--color12, #fefefe)" d="M25.632 16.716c-0.318-2.388-1.433-3.98-4.776-3.98-1.91 0-3.184 0.796-3.821 1.751v0-1.751h-3.662v13.055h3.821v-6.527c0-1.592 0.318-3.343 2.388-3.343s2.229 2.070 2.229 3.503v6.368h3.98v-7.164c0-0.637 0-1.274-0.159-1.91z"></path>
        </symbol>

        <symbol id="icon-youtube" viewBox="0 0 32 32">
            <path fill="#f00" style="fill: var(--color14, #f00)" d="M2.791 12.1c0.167-2.588 2.172-4.679 4.749-4.955 2.673-0.269 5.515-0.415 8.46-0.415s5.787 0.145 8.46 0.416c2.577 0.275 4.583 2.365 4.749 4.953 0.081 1.275 0.124 2.577 0.124 3.9s-0.043 2.625-0.124 3.9c-0.167 2.588-2.172 4.679-4.749 4.955-2.673 0.269-5.515 0.415-8.46 0.415s-5.787-0.145-8.46-0.416c-2.577-0.275-4.583-2.365-4.749-4.953-0.081-1.275-0.124-2.577-0.124-3.9s0.043-2.625 0.124-3.9z"></path>
            <path fill="#fff" style="fill: var(--color2, #fff)" d="M20.073 16l-6.545 3.993v-7.987l6.545 3.993z"></path>
        </symbol>

        <symbol id="icon-menu-open" viewBox="0 0 32 32">
            <path d="M6.4 11.734v-2.134h19.2v2.134h-19.2zM6.4 17.066h19.2v-2.133h-19.2v2.133zM6.4 22.4h19.2v-2.134h-19.2v2.134z"></path>
        </symbol>
        
        <symbol id="icon-menu-close" viewBox="0 0 32 32">
            <path d="M23.734 10.304l-1.504-1.504-5.963 5.962-5.962-5.962-1.504 1.504 5.962 5.962-5.962 5.963 1.504 1.504 5.962-5.963 5.963 5.963 1.504-1.504-5.963-5.963 5.963-5.962z"></path>
        </symbol>
    </defs>
</svg>