<svg aria-hidden="true" style="position:absolute;width:0;height:0;overflow:hidden" xmlns="http://www.w3.org/2000/svg">
    <defs>
        <symbol id="icon-logo" viewBox="0 0 34 32">
            <path fill="#fd8324" style="fill: var(--color1, #fd8324)" d="M5.455 0l11.709 11.078-5.454 5.161-11.709-11.078 5.454-5.161z"></path>
            <path fill="#fd8324" style="fill: var(--color1, #fd8324)" d="M22.576 15.667l11.709 11.078-5.454 5.161-11.709-11.078 5.454-5.161z"></path>
            <path fill="#fd8324" style="fill: var(--color1, #fd8324)" d="M34.22 5.226l-11.709 11.078-5.454-5.161 11.709-11.078 5.454 5.161z"></path>
            <path fill="#fd8324" style="fill: var(--color1, #fd8324)" d="M17.661 20.894l-11.709 11.078-5.454-5.161 11.709-11.078 5.454 5.161z"></path>
        </symbol>

        <symbol id="icon-arrow" viewBox="0 0 42 32">
            <path fill="#fff" style="fill: var(--color1, #fff)" d="M2.462 14.154c-1.020 0-1.846 0.827-1.846 1.846s0.827 1.846 1.846 1.846v-3.692zM40.69 17.305c0.721-0.721 0.721-1.89 0-2.611l-11.749-11.749c-0.721-0.721-1.89-0.721-2.611 0s-0.721 1.89 0 2.611l10.443 10.443-10.443 10.443c-0.721 0.721-0.721 1.89 0 2.611s1.89 0.721 2.611 0l11.749-11.749zM2.462 17.846h36.923v-3.692h-36.923v3.692z"></path>
        </symbol>

        <symbol id="icon-menu-open" viewBox="0 0 43 32">
            <path stroke-width="3.68" d="M3.2 3.12h36.8M12.8 16h27.2M21.6 28.88h18.4"></path>
        </symbol>

        <symbol id="icon-menu-close" viewBox="0 0 32 32">
            <path d="M31.708 25.708c-0-0-0-0-0-0l-9.708-9.708 9.708-9.708c0-0 0-0 0-0 0.105-0.105 0.18-0.227 0.229-0.357 0.133-0.356 0.057-0.771-0.229-1.057l-4.586-4.586c-0.286-0.286-0.702-0.361-1.057-0.229-0.13 0.048-0.252 0.124-0.357 0.228 0 0-0 0-0 0l-9.708 9.708-9.708-9.708c-0-0-0-0-0-0-0.105-0.104-0.227-0.18-0.357-0.228-0.356-0.133-0.771-0.057-1.057 0.229l-4.586 4.586c-0.286 0.286-0.361 0.702-0.229 1.057 0.049 0.13 0.124 0.252 0.229 0.357 0 0 0 0 0 0l9.708 9.708-9.708 9.708c-0 0-0 0-0 0-0.104 0.105-0.18 0.227-0.229 0.357-0.133 0.355-0.057 0.771 0.229 1.057l4.586 4.586c0.286 0.286 0.702 0.361 1.057 0.229 0.13-0.049 0.252-0.124 0.357-0.229 0-0 0-0 0-0l9.708-9.708 9.708 9.708c0 0 0 0 0 0 0.105 0.105 0.227 0.18 0.357 0.229 0.356 0.133 0.771 0.057 1.057-0.229l4.586-4.586c0.286-0.286 0.362-0.702 0.229-1.057-0.049-0.13-0.124-0.252-0.229-0.357z"></path>
        </symbol>

        <symbol id="icon-samsung" viewBox="0 0 101 32">
            <path d="M101.27 7.618c-1.378-7.525-25.15-9.874-53.098-5.246-11.737 1.945-22.335 4.813-30.589 8.040 1.268 0.026 2.208 0.303 2.779 0.845 0.447 0.425 0.672 1.009 0.672 1.736v0.746h-2.741v-0.659c0-0.549-0.346-0.89-0.959-0.89-0.515 0-0.833 0.221-0.935 0.657-0.034 0.172-0.031 0.35 0.011 0.52 0.293 1.14 4.363 1.848 4.805 3.952 0.058 0.271 0.137 0.85 0.013 1.679-0.254 1.697-1.821 2.352-3.817 2.352-2.785 0-3.917-1.255-3.917-2.985l0.002-0.819h2.938l0.002 1.020c0 0.573 0.438 0.89 1.035 0.89 0.565 0 0.895-0.217 1.009-0.659 0.053-0.204 0.076-0.504-0.020-0.733-0.543-1.297-4.343-1.903-4.811-4-0.105-0.471-0.113-0.873-0.026-1.38 0.045-0.252 0.126-0.496 0.243-0.725-9.155 4.072-14.51 8.553-13.802 12.422 1.379 7.526 25.151 9.872 53.098 5.244 12.285-2.034 23.33-5.079 31.736-8.491-0.122 0.006-0.24 0.018-0.366 0.018-1.913 0-3.621-0.682-3.798-2.541-0.031-0.338-0.037-0.48-0.038-0.673l0.001-4.275c0-0.184 0.023-0.508 0.044-0.675 0.227-1.797 1.721-2.539 3.791-2.539 1.603 0 3.567 0.437 3.783 2.54 0.029 0.264 0.026 0.546 0.025 0.638v0.404h-2.768v-0.602c0-0.013-0.004-0.238-0.034-0.379-0.045-0.215-0.238-0.712-1.026-0.712-0.779 0-0.981 0.498-1.031 0.712-0.029 0.118-0.042 0.287-0.042 0.474v4.647c-0.003 0.161 0.006 0.287 0.023 0.38 0.014 0.073 0.153 0.713 1.060 0.713 0.9 0 1.039-0.64 1.052-0.713 0.024-0.126 0.027-0.275 0.026-0.38v-1.44h-1.089v-1.551h3.851v2.758c-0.001 0.188-0.004 0.326-0.037 0.672-0.047 0.488-0.208 0.901-0.461 1.253 8.915-4.026 14.105-8.435 13.406-12.247zM28.802 20.956l-1.402-9.062h-0.050l-1.438 9.062h-2.955l1.987-10.233h4.821l1.975 10.233h-2.939zM43.015 20.956l-0.065-8.886h-0.047l-1.739 8.886h-2.773l-1.73-8.886h-0.049l-0.063 8.886h-2.748l0.238-10.233h4.42l1.287 7.602h0.063l1.291-7.602h4.418l0.237 10.233h-2.739zM55.956 18.973c-0.296 1.982-2.337 2.329-3.78 2.329-2.396 0-3.878-0.974-3.878-2.956l0.002-0.809h2.903l0.002 1.007c0 0.547 0.405 0.881 1.031 0.881 0.558 0 0.885-0.213 0.999-0.651 0.053-0.204 0.074-0.502-0.019-0.726-0.535-1.273-4.305-1.896-4.763-3.961-0.105-0.468-0.113-0.866-0.026-1.368 0.319-1.872 2.208-2.261 3.728-2.261 1.36 0 2.349 0.282 2.943 0.847 0.443 0.421 0.667 1 0.667 1.72v0.738h-2.714v-0.651c0-0.558-0.364-0.88-0.949-0.88-0.519 0-0.833 0.219-0.936 0.651-0.033 0.171-0.029 0.346 0.013 0.515 0.291 1.135 4.324 1.829 4.766 3.913 0.057 0.266 0.135 0.837 0.013 1.662zM66.009 18.043c0.004 0.192-0.016 0.576-0.027 0.674-0.166 1.686-1.433 2.543-3.759 2.543-2.334 0-3.603-0.857-3.768-2.543-0.019-0.224-0.028-0.448-0.027-0.672v-7.325h2.777v7.556c-0.003 0.169 0.006 0.294 0.024 0.381 0.034 0.168 0.21 0.713 0.994 0.713 0.781 0 0.957-0.546 0.994-0.711 0.016-0.089 0.025-0.22 0.025-0.383v-7.555h2.766v7.323zM77.972 20.852h-3.864l-2.594-8.106h-0.043l0.144 8.106h-2.693v-10.129h4.026l2.397 7.786h0.056l-0.142-7.786h2.713v10.129z"></path>
        </symbol>

        <symbol id="icon-suzuki" viewBox="0 0 180 32">
            <path d="M177.087 21.284c1.201 0 2.176 0.927 2.176 2.069 0.006 0.276-0.046 0.55-0.151 0.807-0.107 0.257-0.267 0.49-0.469 0.688-0.203 0.197-0.446 0.354-0.714 0.461-0.267 0.107-0.554 0.162-0.844 0.162s-0.577-0.055-0.846-0.162c-0.267-0.107-0.51-0.264-0.713-0.461s-0.362-0.431-0.469-0.688c-0.107-0.256-0.159-0.531-0.153-0.807 0-1.142 0.975-2.069 2.182-2.069v-0.285c-0.658-0.001-1.29 0.246-1.756 0.688s-0.73 1.041-0.731 1.667c-0.001 0.311 0.063 0.618 0.188 0.905s0.308 0.548 0.539 0.767c0.231 0.219 0.506 0.393 0.807 0.512 0.303 0.119 0.625 0.179 0.953 0.179 0.326-0 0.649-0.061 0.949-0.18 0.302-0.119 0.575-0.293 0.804-0.513 0.23-0.22 0.412-0.48 0.537-0.767 0.123-0.287 0.186-0.593 0.185-0.903 0-0.309-0.063-0.615-0.187-0.901s-0.306-0.545-0.537-0.764-0.503-0.392-0.804-0.51c-0.3-0.118-0.622-0.179-0.946-0.18v0.285z"></path>
            <path d="M176.501 22.271h0.794c0.343 0 0.721 0.049 0.721 0.457 0 0.538-0.604 0.475-0.996 0.475h-0.521v0.253h0.625l0.793 1.218h0.401l-0.836-1.218c0.492-0.012 0.875-0.204 0.875-0.723 0-0.221-0.103-0.457-0.311-0.566-0.209-0.119-0.442-0.13-0.676-0.13h-1.207v2.637h0.336v-2.403h0.001zM17.817 31.345c3.165-2.729 12.954-8.326 16.339-9.375l-20.313-13.855 0.92-0.56 7.471 5.177c0.92 0.629 8.648 2.099 11.776-2.099l-16.34-10.633c-2.87 2.589-12.954 8.396-16.781 9.655l21.344 13.993-0.589 0.736-7.949-5.177c-2.502-1.434-9.053-2.939-12.659 1.644l16.781 10.494zM172.305 25.676v-18.96h-7.212v18.96h7.212zM90.941 6.716h22.632v4.128l-10.6 9.865h10.6v4.967h-22.632v-4.128l10.562-9.865h-10.562v-4.967zM139.333 6.716h7.175v6.368l7.252-6.368h9.679l-10.196 9.025 10.196 9.935h-9.679l-7.214-6.227v6.227h-7.214v-18.96zM41.701 19.554c0 4.268 2.76 6.646 10.268 6.682h4.121c6.072 0 9.384-1.713 9.421-6.787 0-4.058-4.121-5.527-8.17-5.946s-6.625-0.454-6.698-1.713c0.037-0.909 1.031-1.224 2.281-1.224s3.753 1.189 3.753 2.028h8.096c0-3.812-3.385-6.471-9.899-6.471h-2.833c-5.962 0-10.378 2.483-10.378 5.562 0 3.008 0 6.576 8.685 6.786 4.71 0.385 6.33 0.246 6.33 1.75 0 0.84-0.883 1.295-2.134 1.259-1.214-0.034-3.313-0.594-3.313-1.923l-9.531-0.002zM79.127 26.237c8.722 0 10.34-3.64 10.304-6.787v-12.734h-7.213v11.755c0 0.594 0.368 2.59-3.901 2.59-4.49 0-4.269-2.029-4.269-2.624v-11.721h-7.213v12.734c0 2.975 0.736 6.787 9.898 6.787l2.394 0.001zM127.335 26.237c8.722 0 10.341-3.64 10.305-6.787v-12.734h-7.214v11.755c0 0.594 0.369 2.59-3.9 2.59-4.491 0-4.268-2.029-4.268-2.624v-11.721h-7.214v12.734c0 2.975 0.737 6.787 9.9 6.787l2.391 0.001z"></path>
        </symbol>

        <symbol id="icon-mm" viewBox="0 0 93 32">
            <path d="M11.304 24.42l-0.025-15.685c0-1.045 0.942-1.957 2.216-1.957s2.076 1.028 2.076 1.974v23.218h9.686v-6.235h-0.442c-0.181 0-0.361-0.034-0.529-0.1s-0.32-0.163-0.448-0.285-0.23-0.267-0.299-0.426c-0.070-0.159-0.105-0.33-0.105-0.503l-0.012-15.685c0-1.045 0.942-1.957 2.216-1.957s2.076 1.028 2.076 1.974v23.218h10.049v-6.235h-0.442c-0.181 0-0.361-0.034-0.529-0.1s-0.32-0.163-0.448-0.285c-0.128-0.122-0.23-0.267-0.299-0.426s-0.105-0.33-0.105-0.503l-0.037-18.986c0-4.732-7.025-7.386-13.073-3.714-3.629-2.61-7.397-1.858-11.541 0v-1.211h-10.233v5.823h0.767c0.181-0 0.361 0.034 0.529 0.1s0.32 0.163 0.448 0.285c0.128 0.122 0.23 0.267 0.3 0.426s0.105 0.33 0.105 0.503v16.774c0 0.173-0.036 0.343-0.105 0.503s-0.171 0.304-0.3 0.426-0.281 0.219-0.448 0.285c-0.168 0.066-0.347 0.1-0.529 0.1h-0.534v6.235h11.84v-6.235h-0.441c-0.367-0-0.718-0.139-0.977-0.386s-0.405-0.581-0.405-0.929zM56.315 24.42l-0.025-15.685c0-1.045 0.942-1.957 2.216-1.957s2.076 1.028 2.076 1.974v23.218h9.699v-6.235h-0.441c-0.181 0-0.361-0.034-0.529-0.1s-0.32-0.163-0.448-0.285c-0.128-0.122-0.23-0.267-0.299-0.426s-0.105-0.33-0.105-0.503l-0.026-15.685c0-1.045 0.942-1.957 2.216-1.957s2.076 1.028 2.076 1.974v23.218h10.049v-6.235h-0.442c-0.181 0-0.361-0.034-0.529-0.1s-0.32-0.163-0.448-0.285-0.23-0.267-0.299-0.426c-0.069-0.159-0.105-0.33-0.105-0.503l-0.037-18.986c0-4.732-7.025-7.386-13.074-3.714-3.628-2.61-7.396-1.858-11.54 0v-1.211h-10.232v5.823h0.767c0.181-0 0.361 0.034 0.529 0.1s0.32 0.163 0.448 0.285c0.128 0.122 0.23 0.267 0.3 0.426s0.105 0.33 0.105 0.503v16.774c0 0.173-0.036 0.343-0.105 0.503s-0.171 0.304-0.3 0.426c-0.128 0.122-0.281 0.219-0.448 0.285s-0.348 0.1-0.529 0.1h-0.535v6.235h11.84v-6.235h-0.441c-0.366-0-0.718-0.139-0.977-0.386s-0.405-0.581-0.405-0.929z"></path>
            <path d="M45.926 19.232l-0.689-0.974c0.524-0.86 0.829-1.48 0.829-1.48h1.186v-2.388h-2.651l-0.938 1.643-1.533-2.168 0.307-0.338c1.605-1.791 2.024-2.985 1.186-4.444s-4.187-1.791-5.444 0.199c-1.035 1.639 0.392 3.727 0.928 4.413l-0.439 0.43c-1.535 1.393-3.071 4.245-1.396 6.501s4.885 1.725 6.351-0.067c0.034-0.041 0.067-0.083 0.1-0.125l0.807 1.186h2.791v-2.388l-1.395 0zM40.483 11.537c-0.418-0.863-0.698-1.99 0.558-1.99 0.93 0 0.907 1.172 0.535 1.658-0.115 0.134-0.407 0.436-0.764 0.797l-0.329-0.465zM39.506 19.365c-1.116-0.729-0.419-2.122 0.209-2.852l0.768-0.842 1.838 2.703c-0.761 1.148-1.721 1.707-2.816 0.992zM82.493 6.496l-1.326 3.781h2.025l1.326-3.781h-2.025zM89.403 12.135h1.814v-4.245h-1.744v0.531c-1.465-0.73-3.977-0.929-5.233 0.929s-0.279 4.113 0.767 4.71c1.047 0.597 3.628 1.725 4.187 2.654 0.558 0.995 0.628 2.056-0.279 2.521s-2.791 0.133-3.21-2.587h-2.093v4.842h2.163v-0.863c1.465 1.393 3.419 1.128 4.815 0.398s2.512-2.521 1.814-4.643c-0.698-2.123-1.954-2.587-3.768-3.582-1.081-0.514-1.78-1.045-1.954-1.443-0.332-0.746 0.034-1.244 0.453-1.443 0.786-0.382 1.641 0.033 1.937 0.647s0.331 0.945 0.331 1.575z"></path>
        </symbol>

        <symbol id="icon-lenovo" viewBox="0 0 153 32">
            <path d="M64.236 7.020c-2.767 0-5.915 1.275-7.838 3.829l0.001-0.005-0.001 0.001 0.001-3.424h-6.6v23.899h6.599v-13.599c0-2.447 1.909-5.049 5.443-5.049 2.731 0 5.557 1.889 5.557 5.049v13.599h6.6v-14.815c0-5.497-3.955-9.485-9.762-9.485zM120.911 7.422l-5.967 16.279-5.967-16.279h-7.54l9.89 23.891h7.233l9.89-23.891h-7.539zM30.094 14.622c1.124-1.501 2.915-2.382 5.077-2.382 2.379 0 4.183 1.351 5.116 3.344l-11.532 4.757c-0.315-2.441 0.313-4.35 1.339-5.719zM42.775 23.972c-2.778 2.044-4.365 2.532-6.898 2.532-2.28 0-4.065-0.704-5.323-1.938l16.874-6.96c-0.368-2.594-1.359-4.911-2.882-6.672-2.217-2.56-5.499-3.915-9.495-3.915-7.258 0-12.73 5.323-12.73 12.354 0 7.213 5.485 12.353 13.458 12.353 4.467 0 9.034-2.105 11.17-4.564l-4.174-3.19zM21.692 25.294h-15.002v-25.020h-6.691v31.046h21.692v-6.026zM140.301 12.643c-3.686 0-6.363 2.777-6.363 6.728 0 3.772 2.835 6.728 6.451 6.728 3.687 0 6.362-2.854 6.362-6.728 0-3.772-2.834-6.728-6.451-6.728zM140.301 31.723c-7.219 0-12.875-5.347-12.875-12.352 0-6.926 5.695-12.352 12.963-12.352 7.219 0 12.873 5.347 12.873 12.352 0 6.925-5.694 12.352-12.962 12.352zM89.483 12.643c-3.686 0-6.361 2.777-6.361 6.728 0 3.772 2.834 6.728 6.451 6.728 3.686 0 6.361-2.854 6.361-6.728 0-3.772-2.834-6.728-6.451-6.728zM89.483 31.723c-7.219 0-12.873-5.347-12.873-12.352 0-6.926 5.694-12.352 12.963-12.352 7.217 0 12.873 5.347 12.873 12.352 0 6.925-5.695 12.352-12.963 12.352z"></path>
        </symbol>

        <symbol id="icon-21century" viewBox="0 0 97 32">
            <path d="M41.234 31.39h-2.808v-9.076h5.774l0.232 2.493h-3.198v1.265h2.603v2.392h-2.603v2.927zM49.473 22.157c-3.363 0-4.954 2.373-4.954 4.708 0 2.448 1.642 4.708 4.994 4.708 3.159 0 4.994-2.070 4.994-4.656 0-2.47-1.697-4.761-5.033-4.761zM49.525 24.638c1.323 0 1.973 1.284 1.973 2.253 0 1.291-0.902 2.272-2.001 2.272-1.079 0-1.973-0.868-1.973-2.309-0.004-1.070 0.638-2.216 2.001-2.216z"></path>
            <path d="M53.313 31.39l2.966-4.675-2.808-4.379 3.371-0.019 1.138 2.040 1.067-2.040h3.332l-2.769 4.413 2.946 4.656h-3.237l-1.343-2.291-1.398 2.291-3.265 0.004zM40.903 15.959c0-1.265 0.847-2.178 1.914-2.178 1.107 0 1.827 0.831 1.827 0.831l1.563-2.002c0 0-1.252-1.347-3.371-1.347-3.517 0-5.045 2.541-5.045 4.764 0 2.826 2.186 4.626 5.033 4.626 2.351 0 3.604-1.276 3.604-1.276l-1.556-1.976c0 0-0.855 0.775-1.961 0.775-1.174 0.011-2.009-0.876-2.009-2.216zM52.691 20.457h-5.86v-9.072h5.84l0.299 2.493h-3.332v1.070h2.43v2.133h-2.43v1.070h3.332l-0.28 2.305zM53.758 20.457v-9.072h2.43l3.371 4.349v-4.349h2.808v9.069h-2.351l-3.631-4.697v4.701h-2.627zM65.219 20.457v-6.669h-2.245l0.252-2.403h6.821l0.224 2.403h-2.245v6.669h-2.808zM75.293 20.678c-3.178 0-4.316-1.856-4.316-3.702v-5.592h2.808v5.191c0 1.108 0.681 1.744 1.496 1.744 0.941 0 1.497-0.737 1.497-1.744v-5.191h2.906v4.978c-0.008 3.234-1.717 4.315-4.391 4.315zM80.621 11.385v9.069h2.808v-3.020h0.504l1.67 3.323 2.82-0.58-1.816-3.058c0.992-0.535 1.76-1.258 1.76-2.781 0-1.912-1.497-2.957-3.537-2.957l-4.21 0.004zM83.418 13.519h0.847c0.795 0 1.311 0.251 1.311 0.906 0 0.58-0.516 0.969-1.311 0.969h-0.847v-1.875zM87.636 11.385l3.371 5.771v3.297h2.721v-3.305l3.371-5.771h-3.139l-1.583 3.223-1.583-3.223h-3.159v0.008zM38.407 7.822v1.782h7.191l0.291-2.309h-3.178l1.662-1.404c0.729-0.647 1.378-1.497 1.378-2.511 0-1.302-0.729-3.020-3.694-3.020-2.528 0-3.332 1.033-3.84 2.852l2.623 0.528c0.138-0.58 0.437-1.246 1.205-1.246 0.563 0 0.855 0.371 0.855 0.887 0 0.61-0.457 1.145-1.272 1.849l-3.222 2.594zM51.037 9.604h-2.808v-5.689c0 0-0.504 0.565-2.060 0.565v-2.070c1.489-0.157 2.292-1.284 2.584-1.875h2.284v9.069zM52.75 6.565l-1.166 2.070c0 0 1.516 1.164 3.781 1.164 2.237 0 3.674-1.171 3.674-2.901 0-3.361-4.344-2.605-4.344-3.814 0-0.314 0.264-0.618 1.067-0.618 0.973 0 1.973 0.704 1.973 0.704l1.146-1.957c0 0-1.166-0.868-3.139-0.868-2.993 0-3.769 1.969-3.769 2.901 0 3.178 4.316 2.567 4.316 3.72 0 0.415-0.331 0.599-1.040 0.599-1.201 0.007-2.501-0.999-2.501-0.999zM61.241 9.604v-6.666h-2.245l0.252-2.403h6.821l0.224 2.403h-2.245v6.669h-2.808v-0.004z"></path>
            <path d="M16.84 0c-1.067 0-2.107 0.094-3.119 0.269l5.529 20.023 10.574-14.473c-3.080-3.556-7.755-5.82-12.985-5.82zM6.998 3.028c-4.238 2.901-6.998 7.631-6.998 12.968 0 7.010 4.734 12.965 11.331 15.128l5.868-8.036-10.2-20.061zM33.176 12.089l-12.914 11.857 1.993 7.212c6.644-2.141 11.417-8.118 11.417-15.154 0-1.355-0.165-2.669-0.496-3.915zM18.483 25.593l-6.305 5.79c1.477 0.408 3.052 0.618 4.663 0.618 1.595 0 3.131-0.213 4.588-0.599l-2.946-5.809z"></path>
        </symbol>

        <symbol id="icon-checkmark" viewBox="0 0 32 32">
            <path fill="#fd8324" style="fill: var(--color1, #fd8324)" d="M16 2c-2.769 0-5.476 0.821-7.778 2.359s-4.097 3.725-5.156 6.283c-1.060 2.558-1.337 5.373-0.797 8.089s1.874 5.21 3.832 7.168 4.452 3.291 7.168 3.831c2.716 0.54 5.531 0.263 8.089-0.797s4.745-2.854 6.283-5.156c1.538-2.302 2.359-5.009 2.359-7.778 0-3.713-1.475-7.274-4.101-9.899s-6.186-4.101-9.899-4.101zM14 21.59l-5-5 1.59-1.59 3.41 3.41 7.41-7.41 1.596 1.586-9.006 9.004z"></path>
        </symbol>

        <symbol id="icon-vector" viewBox="0 0 60 32">
            <path stroke-linejoin="miter" stroke-linecap="round" stroke-miterlimit="4" stroke-width="9.596" d="M-1.507 4.838c4.584 29.883 45.747 23.389 63.762 16.615"></path>
        </symbol>

        <symbol id="icon-arrow-left" viewBox="0 0 299 32">
            <path d="M296 18c1.104 0 2-0.895 2-2s-0.896-2-2-2v4zM1.252 14.586c-0.781 0.781-0.781 2.047 0 2.828l12.728 12.728c0.781 0.781 2.047 0.781 2.828 0s0.781-2.047 0-2.829l-11.314-11.314 11.314-11.314c0.781-0.781 0.781-2.047 0-2.828s-2.047-0.781-2.828 0l-12.728 12.728zM296 14h-293.333v4h293.333v-4z"></path>
        </symbol>

        <symbol id="icon-mob-arrow-left" viewBox="0 0 19 32">
            <path d="M5.333 18c1.105 0 2-0.895 2-2s-0.895-2-2-2v4zM1.252 14.586c-0.781 0.781-0.781 2.047 0 2.828l12.728 12.728c0.781 0.781 2.047 0.781 2.828 0s0.781-2.047 0-2.829l-11.314-11.314 11.314-11.314c0.781-0.781 0.781-2.047 0-2.828s-2.047-0.781-2.828 0l-12.728 12.728zM5.333 14h-2.667v4h2.667v-4z"></path>
        </symbol>

        <symbol id="icon-category" viewBox="0 0 47 32">
            <path d="M1.528 0.176c-0.92 0.342-1.476 1.269-1.476 2.463 0 0.873 0.162 1.24 0.805 1.826l0.805 0.733h43.617l0.805-0.733c1.073-0.977 1.136-2.651 0.14-3.705l-0.665-0.704-21.721-0.049c-11.947-0.027-21.987 0.049-22.312 0.17zM1.536 13.621c-2.027 0.91-2 3.851 0.043 4.733 0.787 0.34 3.512 0.388 21.893 0.388 22.88 0 22.388 0.030 23.106-1.404 0.732-1.462 0.192-3.12-1.213-3.727-0.787-0.34-3.507-0.388-21.934-0.383-18.363 0.005-21.145 0.055-21.895 0.391zM0.858 27.503c-1.427 1.299-1.010 3.583 0.778 4.257 0.563 0.212 3.889 0.274 11.974 0.223l11.195-0.071 0.684-0.586c1.372-1.174 1.071-3.607-0.529-4.271-0.479-0.199-4.127-0.286-11.993-0.286h-11.305l-0.805 0.733z"></path>
        </symbol>

        <symbol id="icon-social" viewBox="0 0 35 32">
            <path d="M2.339 0.184c0.764-0.237 29.329-0.249 30.142-0.013 0.798 0.232 2.002 1.416 2.238 2.2 0.253 0.842 0.253 19.557 0 20.4-0.236 0.785-1.44 1.968-2.238 2.2-0.435 0.126-2.592 0.174-7.903 0.174h-7.304l-4.361 3.429c-4.718 3.71-4.85 3.783-5.566 3.078-0.357-0.351-0.357-0.351-0.357-3.429v-3.079h-1.982c-1.131 0-2.238-0.074-2.58-0.174-0.798-0.232-2.002-1.416-2.238-2.2-0.253-0.842-0.253-19.557 0-20.4 0.219-0.728 1.435-1.966 2.149-2.187zM2.696 2.634l-0.357 0.351v19.173l0.357 0.351c0.354 0.348 0.381 0.351 3.109 0.351 3.683 0 3.416-0.233 3.511 3.059l0.073 2.513 7.086-5.572h15.383l0.714-0.702v-19.173l-0.714-0.701h-28.805l-0.357 0.351zM7.347 9.493c-0.225 0.221-0.357 0.514-0.357 0.792s0.132 0.571 0.357 0.792l0.357 0.351h19.503l0.357-0.351c0.472-0.464 0.472-1.121 0-1.585l-0.357-0.351h-19.503l-0.357 0.351zM7.347 14.065c-0.225 0.221-0.357 0.514-0.357 0.792s0.132 0.571 0.357 0.792l0.357 0.351h10.201l0.357-0.351c0.225-0.221 0.357-0.514 0.357-0.792s-0.132-0.571-0.357-0.792l-0.357-0.351h-10.201l-0.357 0.351z"></path>
        </symbol>

        <symbol id="icon-followers" viewBox="0 0 32 32">
            <path d="M27.839 0.248c0.411-0.323 0.806-0.33 1.189-0.020 0.261 0.211 0.3 0.364 0.34 1.314l0.044 1.074h0.994c0.888 0 1.026 0.033 1.301 0.307 0.375 0.375 0.392 0.803 0.048 1.24-0.243 0.309-0.325 0.33-1.301 0.33h-1.042l-0.044 1.050c-0.052 1.232-0.257 1.577-0.939 1.577-0.725 0-0.919-0.33-0.919-1.564v-1.063h-0.991c-0.545 0-1.082-0.035-1.193-0.078-0.334-0.128-0.585-0.738-0.451-1.091 0.206-0.541 0.597-0.708 1.662-0.708h0.973v-1.054c0-0.99 0.020-1.070 0.33-1.314zM14.434 4.114c0.743-0.164 2.277-0.042 3.118 0.249 4.256 1.471 5.585 6.849 2.491 10.078-0.308 0.321-0.542 0.599-0.519 0.617s0.449 0.245 0.948 0.504c1.637 0.851 3.061 2.567 3.688 4.444 0.255 0.764 0.274 1.096 0.319 5.43 0.042 4.063 0.023 4.682-0.159 5.157-0.241 0.632-0.763 1.112-1.414 1.301-0.319 0.093-3.765 0.123-11.058 0.097-10.476-0.037-10.598-0.040-10.94-0.295-0.19-0.142-0.462-0.413-0.603-0.603-0.244-0.326-0.26-0.536-0.295-3.846-0.040-3.833 0.028-4.399 0.697-5.729 0.416-0.828 1.518-1.969 2.299-2.381l0.579-0.305-0.491-0.651c-1.702-2.255-1.179-5.488 1.14-7.035 1.387-0.926 3.209-1.139 4.575-0.535l0.56 0.248v-0.717c0-2.876 2.097-5.371 5.067-6.028zM14.488 6.032c-1.253 0.355-2.387 1.308-2.914 2.449-0.382 0.828-0.379 2.586 0.005 3.42 0.381 0.827 1.321 1.784 2.151 2.192 0.61 0.3 0.853 0.346 1.83 0.346s1.22-0.046 1.83-0.346c0.83-0.408 1.77-1.365 2.151-2.192 0.215-0.467 0.272-0.825 0.273-1.716 0-0.978-0.045-1.219-0.346-1.832-0.879-1.79-3.138-2.843-4.98-2.321zM6.239 12.241c-0.902 0.274-1.724 0.989-2.057 1.787-0.263 0.63-0.244 1.79 0.040 2.415 0.475 1.047 1.447 1.695 2.679 1.788 0.722 0.054 0.725 0.053 1.189-0.485 0.625-0.726 1.010-1.116 1.505-1.523 0.524-0.432 0.619-0.957 0.344-1.902-0.449-1.543-2.209-2.533-3.699-2.080zM12.595 16.744c-1.037 0.332-1.723 0.775-2.505 1.619-0.776 0.838-1.124 1.479-1.408 2.591-0.16 0.627-0.188 1.493-0.161 4.942l0.033 4.182h14.013l0.033-4.060c0.019-2.379-0.020-4.345-0.095-4.75-0.282-1.526-1.45-3.231-2.725-3.979-1.109-0.65-1.859-0.787-4.262-0.78-1.78 0.005-2.348 0.051-2.923 0.235zM4.963 20.306c-1.148 0.309-2.159 1.177-2.711 2.327-0.328 0.684-0.33 0.708-0.369 4.097l-0.039 3.409h4.75l0.056-4.66c0.031-2.563 0.098-4.815 0.149-5.004l0.093-0.344-0.671 0.008c-0.369 0.005-0.936 0.080-1.259 0.167z"></path>
        </symbol>
    </defs>
</svg>