<svg width="152" height="24" viewBox="0 0 152 24" fill="none" xmlns="http://www.w3.org/2000/svg">
<path d="M36.3206 14.9865V20.1878H33.2738V5.42547H39.0425C40.1529 5.42547 41.1279 5.62825 41.9675 6.03381C42.8138 6.43936 43.4638 7.01729 43.9175 7.76757C44.3711 8.51109 44.5979 9.35939 44.5979 10.3124C44.5979 11.7589 44.1003 12.9013 43.105 13.7394C42.1164 14.5708 40.7454 14.9865 38.9917 14.9865H36.3206ZM36.3206 12.5227H39.0425C39.8482 12.5227 40.461 12.3335 40.8808 11.955C41.3073 11.5764 41.5206 11.0357 41.5206 10.3327C41.5206 9.60948 41.3073 9.0248 40.8808 8.57869C40.4542 8.13257 39.8651 7.90276 39.1136 7.88924H36.3206V12.5227Z" fill="#111312"/>
<path d="M57.8924 5.42547V15.1487C57.8924 16.7642 57.3846 18.0417 56.369 18.9813C55.3602 19.9208 53.9789 20.3906 52.2253 20.3906C50.4987 20.3906 49.1276 19.9343 48.112 19.0218C47.0964 18.1093 46.5784 16.8555 46.5581 15.2603V5.42547H49.605V15.169C49.605 16.1356 49.8352 16.8419 50.2956 17.2881C50.7628 17.7274 51.406 17.9471 52.2253 17.9471C53.9383 17.9471 54.8083 17.0481 54.8354 15.2501V5.42547H57.8924Z" fill="#111312"/>
<path d="M60.3909 20.1878V5.42547H65.5705C67.3648 5.42547 68.7257 5.77019 69.6533 6.45964C70.5809 7.14233 71.0447 8.14609 71.0447 9.47092C71.0447 10.1942 70.8586 10.8329 70.4862 11.3872C70.1138 11.9347 69.5958 12.3369 68.9323 12.5937C69.6906 12.783 70.2864 13.1649 70.7197 13.7394C71.1599 14.314 71.3799 15.0169 71.3799 15.8483C71.3799 17.2678 70.9263 18.3425 70.019 19.0725C69.1117 19.8025 67.8185 20.1743 66.1393 20.1878H60.3909ZM63.4377 13.7597V17.7443H66.0479C66.7656 17.7443 67.3242 17.5753 67.7237 17.2374C68.1299 16.8926 68.333 16.4195 68.333 15.8179C68.333 14.466 67.6323 13.78 66.2307 13.7597H63.4377ZM63.4377 11.6102H65.6924C67.2294 11.5832 67.9979 10.9715 67.9979 9.77508C67.9979 9.10591 67.8015 8.626 67.4088 8.33535C67.0229 8.03794 66.4101 7.88924 65.5705 7.88924H63.4377V11.6102Z" fill="#111312"/>
<path d="M76.7221 17.7443H83.1916V20.1878H73.6752V5.42547H76.7221V17.7443Z" fill="#111312"/>
<path d="M88.1885 20.1878H85.1416V5.42547H88.1885V20.1878Z" fill="#111312"/>
<path d="M102.631 15.2704C102.515 16.8588 101.926 18.1093 100.863 19.0218C99.8072 19.9343 98.4124 20.3906 96.6791 20.3906C94.7832 20.3906 93.2903 19.7552 92.2002 18.4845C91.1168 17.2069 90.5752 15.4563 90.5752 13.2325V12.3301C90.5752 10.9106 90.8257 9.66018 91.3267 8.57869C91.8278 7.4972 92.5421 6.66918 93.4697 6.09464C94.4041 5.51334 95.4874 5.22269 96.7197 5.22269C98.4259 5.22269 99.8004 5.67894 100.843 6.59145C101.886 7.50396 102.488 8.78485 102.651 10.4341H99.604C99.5296 9.48105 99.2621 8.7916 98.8017 8.36577C98.3481 7.93317 97.6541 7.71687 96.7197 7.71687C95.7041 7.71687 94.9423 8.08188 94.4345 8.81188C93.9335 9.53513 93.6762 10.6606 93.6627 12.1882V13.3034C93.6627 14.8986 93.903 16.0646 94.3838 16.8014C94.8712 17.5382 95.6363 17.9065 96.6791 17.9065C97.6202 17.9065 98.321 17.6936 98.7814 17.2678C99.2486 16.8352 99.516 16.1694 99.5837 15.2704H102.631Z" fill="#111312"/>
<path d="M113.528 14.1551H107.678V20.1878H104.631V5.42547H114.259V7.88924H107.678V11.7015H113.528V14.1551Z" fill="#111312"/>
<path d="M122.425 17.1461H117.083L116.067 20.1878H112.827L118.332 5.42547H121.156L126.691 20.1878H123.451L122.425 17.1461ZM117.906 14.6823H121.602L119.744 9.15661L117.906 14.6823Z" fill="#111312"/>
<path d="M135.74 16.3147C135.74 15.7402 135.537 15.3008 135.131 14.9967C134.724 14.6857 133.993 14.3613 132.937 14.0233C131.881 13.6786 131.044 13.3406 130.428 13.0094C128.749 12.1037 127.909 10.8836 127.909 9.34925C127.909 8.55165 128.133 7.84192 128.58 7.22007C129.033 6.59145 129.68 6.1014 130.52 5.74992C131.366 5.39843 132.314 5.22269 133.363 5.22269C134.42 5.22269 135.361 5.41533 136.187 5.80061C137.013 6.17913 137.653 6.7165 138.106 7.41271C138.567 8.10891 138.797 8.89975 138.797 9.78522H135.75C135.75 9.10929 135.537 8.58545 135.11 8.21368C134.684 7.83516 134.084 7.6459 133.313 7.6459C132.568 7.6459 131.989 7.80475 131.576 8.12243C131.163 8.43336 130.956 8.84568 130.956 9.35939C130.956 9.8393 131.197 10.2415 131.677 10.5659C132.165 10.8904 132.879 11.1945 133.82 11.4784C135.554 11.9989 136.816 12.6444 137.609 13.415C138.401 14.1855 138.797 15.1454 138.797 16.2944C138.797 17.5719 138.313 18.5757 137.345 19.3057C136.376 20.029 135.073 20.3906 133.434 20.3906C132.297 20.3906 131.261 20.1844 130.327 19.7721C129.392 19.353 128.678 18.7819 128.184 18.0586C127.696 17.3354 127.452 16.4972 127.452 15.5442H130.509C130.509 17.1731 131.484 17.9876 133.434 17.9876C134.159 17.9876 134.724 17.8423 135.131 17.5517C135.537 17.2543 135.74 16.8419 135.74 16.3147Z" fill="#111312"/>
<path d="M152 7.88924H147.47V20.1878H144.423V7.88924H139.955V5.42547H152V7.88924Z" fill="#111312"/>
<path d="M12.0202 7.14287L19.1751 8.00575e-05L24.0405 4.85718L16.8855 12L12.0202 7.14287Z" fill="#111312"/>
<path d="M0 19.1429L7.15495 12.0001L12.0203 16.8572L4.86537 24L0 19.1429Z" fill="#111312"/>
<path d="M0 4.8571L4.86537 0L12.0202 7.14287L7.15495 12.0001L0 4.8571Z" fill="#111312"/>
<path d="M12.0203 16.8572L16.8855 12L24.0405 19.1428L19.1751 23.9999L12.0203 16.8572Z" fill="#111312"/>
</svg>
