<svg width="12" height="15" viewBox="0 0 12 15" fill="none" xmlns="http://www.w3.org/2000/svg">
<path d="M6.99996 0.446655C6.99996 0.446655 7.49329 2.21332 7.49329 3.64665C7.49329 5.01999 6.59329 6.13665 5.21663 6.13665C3.83996 6.13665 2.79996 5.02332 2.79996 3.64665L2.81663 3.40666C1.47663 5.00999 0.666626 7.07665 0.666626 9.33332C0.666626 12.28 3.05329 14.6667 5.99996 14.6667C8.94663 14.6667 11.3333 12.28 11.3333 9.33332C11.3333 5.73665 9.60329 2.52999 6.99996 0.446655ZM5.80663 12.6667C4.61996 12.6667 3.65663 11.73 3.65663 10.5733C3.65663 9.48999 4.35329 8.72999 5.53329 8.49332C6.71329 8.25665 7.93329 7.68999 8.60996 6.77665C8.86996 7.63665 9.00663 8.54332 9.00663 9.46665C9.00663 11.23 7.57329 12.6667 5.80663 12.6667Z" fill="white"/>
</svg>
