<svg width="18" height="18" viewBox="0 0 18 18" fill="none" xmlns="http://www.w3.org/2000/svg">
<rect x="1" y="2" width="16" height="14" fill="white"/>
<path fill-rule="evenodd" clip-rule="evenodd" d="M2 0H16C17.105 0 18 0.895 18 2V16C18 17.105 17.105 18 16 18H2C0.895 18 0 17.105 0 16V2C0 0.895 0.895 0 2 0ZM6.293 13.707C6.683 14.098 7.316 14.098 7.707 13.707L15 6.414C15.39 6.024 15.39 5.39 15 5C14.61 4.61 13.976 4.61 13.586 5L7 11.586L4.414 9C4.024 8.61 3.39 8.61 3 9C2.61 9.39 2.61 10.024 3 10.414L6.293 13.707Z" fill="black"/>
</svg>
