<svg width="14" height="14" viewBox="0 0 14 14" fill="none" xmlns="http://www.w3.org/2000/svg">
<path d="M3.344 8.54866L2.35066 12.85C2.3199 12.9802 2.32914 13.1167 2.37716 13.2417C2.42518 13.3666 2.50976 13.4741 2.61984 13.5502C2.72993 13.6263 2.86041 13.6674 2.99423 13.6682C3.12806 13.669 3.25902 13.6295 3.37 13.5547L7 11.1347L10.63 13.5547C10.7436 13.6301 10.8775 13.6689 11.0138 13.6659C11.15 13.6629 11.2821 13.6182 11.3923 13.5379C11.5024 13.4576 11.5853 13.3455 11.6298 13.2167C11.6744 13.0879 11.6784 12.9485 11.6413 12.8173L10.422 8.55066L13.446 5.82933C13.5428 5.74212 13.612 5.62844 13.6449 5.50234C13.6779 5.37624 13.6731 5.24325 13.6313 5.11982C13.5894 4.9964 13.5123 4.88795 13.4095 4.80788C13.3066 4.72781 13.1826 4.67964 13.0527 4.66933L9.252 4.36666L7.60733 0.725996C7.55489 0.608767 7.46964 0.50922 7.36187 0.43937C7.2541 0.36952 7.12842 0.332352 7 0.332352C6.87157 0.332352 6.74589 0.36952 6.63812 0.43937C6.53036 0.50922 6.44511 0.608767 6.39266 0.725996L4.748 4.36666L0.947331 4.66866C0.819634 4.67878 0.697556 4.72547 0.5957 4.80315C0.493845 4.88083 0.416526 4.98621 0.372993 5.10668C0.329459 5.22716 0.321556 5.35762 0.350227 5.48247C0.378899 5.60731 0.442931 5.72125 0.534664 5.81066L3.344 8.54866Z" fill="white"/>
</svg>
