<?xml version="1.0" encoding="UTF-8"?>
<svg width="232px" height="232px" viewBox="0 0 232 232" version="1.1" xmlns="http://www.w3.org/2000/svg" xmlns:xlink="http://www.w3.org/1999/xlink">
    <title>m-ms-3-logo-svg-vector</title>
    <g id="Page-1" stroke="none" stroke-width="1" fill="none" fill-rule="evenodd">
        <g id="m-ms-3-logo-svg-vector" fill-rule="nonzero">
            <polygon id="Path" fill-opacity="0" fill="#FFFFFF" points="0 0 232 0 232 232 0 232"></polygon>
            <path d="M29.2097165,137.399306 L29.1471196,96.677259 C29.1471196,93.9644689 31.4644104,91.5971186 34.5966653,91.5971186 C37.7289202,91.5971186 39.7031316,94.2664268 39.7031316,96.7207409 L39.7031316,156.998792 L63.5284926,156.998792 L63.5284926,140.811431 L62.4414726,140.811431 C61.5399809,140.811431 60.6754296,140.452029 60.0380916,139.812323 C59.4007536,139.172618 59.0428613,138.305035 59.0431806,137.400514 L59.0142897,96.6784668 C59.0142897,93.9656767 61.3315806,91.5983265 64.4638355,91.5983265 C67.5960904,91.5983265 69.5703018,94.2676346 69.5703018,96.7219487 L69.5703018,157 L94.2876693,157 L94.2876693,140.812639 L93.2006492,140.812639 C92.2991575,140.812639 91.4346062,140.453237 90.7972682,139.813531 C90.1599303,139.173826 89.8020379,138.306242 89.8023573,137.401722 L89.7108694,88.1113162 C89.7108694,75.8264595 72.4317045,68.9369872 57.5552994,78.4679875 C48.6292155,71.6932592 39.3600522,73.6451153 29.1687878,78.4679875 L29.1687878,75.3240015 L4,75.3240015 L4,90.4424315 L5.8875387,90.4424315 C6.78903032,90.4421111 7.65370846,90.8012058 8.2912722,91.440685 C8.92883595,92.0801642 9.28703449,92.9476201 9.28703443,93.8521405 L9.28703443,137.401722 C9.2873539,138.306452 8.92929636,139.174218 8.29169798,139.813958 C7.6540996,140.453699 6.78923893,140.812959 5.8875387,140.812639 L4.57300282,140.812639 L4.57300282,157 L33.6950285,157 L33.6950285,140.812639 L32.6092123,140.812639 C30.7316085,140.81064 29.2103797,139.283219 29.2097165,137.399306 L29.2097165,137.399306 Z M139.922047,137.399306 L139.860654,96.677259 C139.860654,93.9644689 142.176741,91.5971186 145.3102,91.5971186 C148.442455,91.5971186 150.416666,94.2664268 150.416666,96.7207409 L150.416666,156.998792 L174.273326,156.998792 L174.273326,140.811431 L173.187509,140.811431 C172.286128,140.811431 171.421701,140.451991 170.784554,139.81225 C170.147407,139.17251 169.789782,138.304923 169.790421,137.400514 L169.72662,96.6784668 C169.72662,93.9656767 172.042708,91.5983265 175.176166,91.5983265 C178.308421,91.5983265 180.282633,94.2676346 180.282633,96.7219487 L180.282633,157 L205,157 L205,140.812639 L203.911776,140.812639 C203.010395,140.812639 202.145967,140.453199 201.50882,139.813458 C200.871674,139.173718 200.514049,138.306131 200.514688,137.401722 L200.4232,88.1113162 C200.4232,75.8264595 183.144035,68.9369872 168.266426,78.4679875 C159.341546,71.6932592 150.073587,73.6451153 139.881119,78.4679875 L139.881119,75.3240015 L114.713535,75.3240015 L114.713535,90.4424315 L116.601073,90.4424315 C117.502565,90.4421111 118.367243,90.8012058 119.004807,91.440685 C119.64237,92.0801642 120.000569,92.9476201 120.000569,93.8521405 L120.000569,137.401722 C120.000888,138.306452 119.642831,139.174218 119.005233,139.813958 C118.367634,140.453699 117.502773,140.812959 116.601073,140.812639 L115.285334,140.812639 L115.285334,157 L144.407359,157 L144.407359,140.812639 L143.321543,140.812639 C141.444214,140.809975 139.923373,139.282944 139.922047,137.399306 L139.922047,137.399306 Z" id="Shape" fill="#694A2D"></path>
            <path d="M113.088663,124.427492 L111.39275,121.870704 C112.682752,119.614284 113.431941,117.985462 113.431941,117.985462 L116.350404,117.985462 L116.350404,111.718036 L109.825717,111.718036 L107.517927,116.030631 L103.74428,110.340741 L104.500696,109.45429 C108.451402,104.753416 109.481235,101.619092 107.420364,97.7900165 C105.359493,93.9597195 97.1148034,93.0891419 94.0228943,98.3126072 C91.4766162,102.614213 94.9864811,108.092868 96.3053905,109.893853 L95.2261733,111.022063 C91.4477086,114.677756 87.6692439,122.163746 91.7909864,128.083185 C95.9127289,134.002624 103.812936,132.609455 107.420364,127.908581 C107.503473,127.801132 107.585378,127.691242 107.667283,127.581351 L109.652272,130.693696 L116.521441,130.693696 L116.521441,124.426271 L113.088663,124.426271 L113.088663,124.427492 L113.088663,124.427492 Z M99.692398,104.232046 C98.6625646,101.9683 97.9748046,99.0098018 101.066714,99.0098018 C103.356437,99.0098018 103.299826,102.085517 102.383214,103.361469 C102.101365,103.714339 101.381084,104.506773 100.501811,105.453052 L99.692398,104.232046 L99.692398,104.232046 Z M97.288249,124.776699 C94.5408222,122.862161 96.2584156,119.206468 97.8037679,117.290709 L99.6936025,115.079467 L104.217642,122.172293 C102.345875,125.184515 99.9826785,126.653386 97.288249,124.776699 L97.288249,124.776699 Z M203.082851,91 L199.819905,100.92434 L204.802853,100.92434 L208.065799,91 L203.082851,91 Z M220.087748,105.799818 L224.552769,105.799818 L224.552769,94.6581351 L220.25999,94.6581351 L220.25999,96.0513034 C216.653766,94.1355444 210.471152,93.6129536 207.380448,98.4884321 C204.289743,103.36269 206.693892,109.282128 209.269078,110.849901 C211.845468,112.416452 218.199118,115.376171 219.573434,117.814521 C220.94775,120.426254 221.118786,123.211369 218.886878,124.429934 C216.65497,125.648498 212.017709,124.77792 210.986671,117.639917 L205.835095,117.639917 L205.835095,130.348151 L211.158912,130.348151 L211.158912,128.084406 C214.765136,131.740099 219.573434,131.044125 223.008621,129.128366 C226.443808,127.212607 229.191234,122.512954 227.473641,116.942722 C225.756048,111.37127 222.665343,110.152706 218.200323,107.540973 C215.539619,106.191761 213.819616,104.798593 213.392025,103.754633 C212.575385,101.796138 213.476339,100.489662 214.507376,99.9670708 C216.440572,98.9658456 218.544805,100.053762 219.273518,101.665491 C220.00223,103.274777 220.087748,104.145355 220.087748,105.799818 L220.087748,105.799818 Z" id="Shape" fill="#694A2D"></path>
        </g>
    </g>
</svg>