<?xml version="1.0" encoding="UTF-8"?>
<svg width="224px" height="83px" viewBox="0 0 224 83" version="1.1" xmlns="http://www.w3.org/2000/svg" xmlns:xlink="http://www.w3.org/1999/xlink">
    <title>m&amp;m</title>
    <g id="Page-1" stroke="none" stroke-width="1" fill="none" fill-rule="evenodd">
        <g id="m&amp;m" fill="#000000" fill-rule="nonzero">
            <path d="M25.2097165,63.399306 L25.1471196,22.677259 C25.1471196,19.9644689 27.4644104,17.5971186 30.5966653,17.5971186 C33.7289202,17.5971186 35.7031316,20.2664268 35.7031316,22.7207409 L35.7031316,82.998792 L59.5284926,82.998792 L59.5284926,66.811431 L58.4414726,66.811431 C57.5399809,66.811431 56.6754296,66.452029 56.0380916,65.812323 C55.4007536,65.172618 55.0428613,64.305035 55.0431806,63.400514 L55.0142897,22.6784668 C55.0142897,19.9656767 57.3315806,17.5983265 60.4638355,17.5983265 C63.5960904,17.5983265 65.5703018,20.2676346 65.5703018,22.7219487 L65.5703018,83 L90.2876693,83 L90.2876693,66.812639 L89.2006492,66.812639 C88.2991575,66.812639 87.4346062,66.453237 86.7972682,65.813531 C86.1599303,65.173826 85.8020379,64.306242 85.8023573,63.401722 L85.7108694,14.1113162 C85.7108694,1.8264595 68.4317045,-5.0630128 53.5552994,4.4679875 C44.6292155,-2.3067408 35.3600522,-0.3548847 25.1687878,4.4679875 L25.1687878,1.3240015 L0,1.3240015 L0,16.4424315 L1.8875387,16.4424315 C2.78903032,16.4421111 3.65370846,16.8012058 4.2912722,17.440685 C4.92883595,18.0801642 5.28703449,18.9476201 5.28703443,19.8521405 L5.28703443,63.401722 C5.2873539,64.306452 4.92929636,65.174218 4.29169798,65.813958 C3.6540996,66.453699 2.78923893,66.812959 1.8875387,66.812639 L0.57300282,66.812639 L0.57300282,83 L29.6950285,83 L29.6950285,66.812639 L28.6092123,66.812639 C26.7316085,66.81064 25.2103797,65.283219 25.2097165,63.399306 L25.2097165,63.399306 Z M135.922047,63.399306 L135.860654,22.677259 C135.860654,19.9644689 138.176741,17.5971186 141.3102,17.5971186 C144.442455,17.5971186 146.416666,20.2664268 146.416666,22.7207409 L146.416666,82.998792 L170.273326,82.998792 L170.273326,66.811431 L169.187509,66.811431 C168.286128,66.811431 167.421701,66.451991 166.784554,65.81225 C166.147407,65.17251 165.789782,64.304923 165.790421,63.400514 L165.72662,22.6784668 C165.72662,19.9656767 168.042708,17.5983265 171.176166,17.5983265 C174.308421,17.5983265 176.282633,20.2676346 176.282633,22.7219487 L176.282633,83 L201,83 L201,66.812639 L199.911776,66.812639 C199.010395,66.812639 198.145967,66.453199 197.50882,65.813458 C196.871674,65.173718 196.514049,64.306131 196.514688,63.401722 L196.4232,14.1113162 C196.4232,1.8264595 179.144035,-5.0630128 164.266426,4.4679875 C155.341546,-2.3067408 146.073587,-0.3548847 135.881119,4.4679875 L135.881119,1.3240015 L110.713535,1.3240015 L110.713535,16.4424315 L112.601073,16.4424315 C113.502565,16.4421111 114.367243,16.8012058 115.004807,17.440685 C115.64237,18.0801642 116.000569,18.9476201 116.000569,19.8521405 L116.000569,63.401722 C116.000888,64.306452 115.642831,65.174218 115.005233,65.813958 C114.367634,66.453699 113.502773,66.812959 112.601073,66.812639 L111.285334,66.812639 L111.285334,83 L140.407359,83 L140.407359,66.812639 L139.321543,66.812639 C137.444214,66.809975 135.923373,65.282944 135.922047,63.399306 L135.922047,63.399306 Z" id="Shape"></path>
            <path d="M109.088663,50.427492 L107.39275,47.870704 C108.682752,45.614284 109.431941,43.985462 109.431941,43.985462 L112.350404,43.985462 L112.350404,37.718036 L105.825717,37.718036 L103.517927,42.030631 L99.74428,36.340741 L100.500696,35.45429 C104.451402,30.753416 105.481235,27.619092 103.420364,23.7900165 C101.359493,19.9597195 93.1148034,19.0891419 90.0228943,24.3126072 C87.4766162,28.614213 90.9864811,34.092868 92.3053905,35.893853 L91.2261733,37.022063 C87.4477086,40.677756 83.6692439,48.163746 87.7909864,54.083185 C91.9127289,60.002624 99.812936,58.609455 103.420364,53.908581 C103.503473,53.801132 103.585378,53.691242 103.667283,53.581351 L105.652272,56.693696 L112.521441,56.693696 L112.521441,50.426271 L109.088663,50.426271 L109.088663,50.427492 L109.088663,50.427492 Z M95.692398,30.232046 C94.6625646,27.9683 93.9748046,25.0098018 97.066714,25.0098018 C99.356437,25.0098018 99.299826,28.085517 98.383214,29.361469 C98.101365,29.714339 97.381084,30.506773 96.501811,31.453052 L95.692398,30.232046 L95.692398,30.232046 Z M93.288249,50.776699 C90.5408222,48.862161 92.2584156,45.206468 93.8037679,43.290709 L95.6936025,41.079467 L100.217642,48.172293 C98.345875,51.184515 95.9826785,52.653386 93.288249,50.776699 L93.288249,50.776699 Z M199.082851,17 L195.819905,26.92434 L200.802853,26.92434 L204.065799,17 L199.082851,17 Z M216.087748,31.799818 L220.552769,31.799818 L220.552769,20.6581351 L216.25999,20.6581351 L216.25999,22.0513034 C212.653766,20.1355444 206.471152,19.6129536 203.380448,24.4884321 C200.289743,29.36269 202.693892,35.282128 205.269078,36.849901 C207.845468,38.416452 214.199118,41.376171 215.573434,43.814521 C216.94775,46.426254 217.118786,49.211369 214.886878,50.429934 C212.65497,51.648498 208.017709,50.77792 206.986671,43.639917 L201.835095,43.639917 L201.835095,56.348151 L207.158912,56.348151 L207.158912,54.084406 C210.765136,57.740099 215.573434,57.044125 219.008621,55.128366 C222.443808,53.212607 225.191234,48.512954 223.473641,42.942722 C221.756048,37.37127 218.665343,36.152706 214.200323,33.540973 C211.539619,32.191761 209.819616,30.798593 209.392025,29.754633 C208.575385,27.796138 209.476339,26.489662 210.507376,25.9670708 C212.440572,24.9658456 214.544805,26.053762 215.273518,27.665491 C216.00223,29.274777 216.087748,30.145355 216.087748,31.799818 L216.087748,31.799818 Z" id="Shape"></path>
        </g>
    </g>
</svg>