<svg width="16" height="16" viewBox="0 0 16 16" fill="none" xmlns="http://www.w3.org/2000/svg">
<path d="M4.66634 14.6666H2.66634C2.31272 14.6666 1.97358 14.5262 1.72353 14.2761C1.47348 14.0261 1.33301 13.6869 1.33301 13.3333V8.66665C1.33301 8.31302 1.47348 7.97389 1.72353 7.72384C1.97358 7.47379 2.31272 7.33331 2.66634 7.33331H4.66634M9.33301 5.99998V3.33331C9.33301 2.80288 9.12229 2.29417 8.74722 1.9191C8.37215 1.54403 7.86344 1.33331 7.33301 1.33331L4.66634 7.33331V14.6666H12.1863C12.5079 14.6703 12.8199 14.5576 13.0649 14.3493C13.31 14.1411 13.4715 13.8513 13.5197 13.5333L14.4397 7.53331C14.4687 7.34222 14.4558 7.1471 14.4019 6.96148C14.348 6.77586 14.2544 6.60418 14.1276 6.45832C14.0008 6.31247 13.8437 6.19593 13.6674 6.11679C13.4911 6.03765 13.2996 5.99779 13.1063 5.99998H9.33301Z" stroke="#828282" stroke-width="2" stroke-linecap="round" stroke-linejoin="round"/>
</svg>
