<svg width="155" height="32" viewBox="0 0 155 32" fill="none" xmlns="http://www.w3.org/2000/svg">
<path d="M55.0225 20.1172H53.2207V23H49.2568V10.3965H55.0225C57.0557 10.3965 58.5352 10.8008 59.4609 11.6094C60.375 12.4297 60.832 13.6455 60.832 15.2568C60.832 16.8799 60.375 18.0957 59.4609 18.9043C58.5352 19.7129 57.0557 20.1172 55.0225 20.1172ZM53.2207 16.8828H55.0225C56.1357 16.8828 56.6924 16.3408 56.6924 15.2568C56.6924 14.1787 56.1357 13.6396 55.0225 13.6396H53.2207V16.8828ZM62.3525 14H65.9561V18.3418C65.9561 18.8516 66.1055 19.2617 66.4043 19.5723C66.709 19.877 67.1279 20.0293 67.6611 20.0293C68.2061 20.0293 68.6279 19.8799 68.9268 19.5811C69.2256 19.2764 69.375 18.8633 69.375 18.3418V14H72.9697V23H69.375V21.3828H69.1904C69.1494 21.5352 69.0205 21.7432 68.8037 22.0068C68.6338 22.2119 68.4375 22.3906 68.2148 22.543C67.9688 22.7188 67.6436 22.8682 67.2393 22.9912C66.835 23.1143 66.4072 23.1758 65.9561 23.1758C64.8369 23.1758 63.958 22.8594 63.3193 22.2266C62.6748 21.5996 62.3525 20.6562 62.3525 19.3965V14ZM82.0576 13.8242C83.2119 13.8242 84.1758 14.2285 84.9492 15.0371C85.7227 15.8457 86.1094 17 86.1094 18.5C86.1094 20 85.7227 21.1543 84.9492 21.9629C84.1758 22.7715 83.2119 23.1758 82.0576 23.1758C81.6533 23.1758 81.2695 23.1172 80.9062 23C80.5488 22.877 80.2588 22.7217 80.0361 22.5342C79.6084 22.1885 79.3213 21.8633 79.1748 21.5586L79.0869 21.3828H78.9111V23H75.3076V10.3965H78.9111V14.8965H79.0693C79.2041 14.7617 79.3506 14.6357 79.5088 14.5186C79.708 14.3838 79.8955 14.2754 80.0713 14.1934C80.6104 13.9473 81.2725 13.8242 82.0576 13.8242ZM81.8906 19.6162C82.1836 19.3408 82.3301 18.9688 82.3301 18.5C82.3301 18.0312 82.1836 17.6592 81.8906 17.3838C81.5859 17.1084 81.1611 16.9707 80.6162 16.9707C80.0771 16.9707 79.6582 17.1055 79.3594 17.375C79.0605 17.6445 78.9111 18.0195 78.9111 18.5C78.9111 18.9746 79.0576 19.3496 79.3506 19.625C79.6494 19.8945 80.0713 20.0293 80.6162 20.0293C81.1611 20.0293 81.5859 19.8916 81.8906 19.6162ZM87.999 10.3965H91.6025V23H87.999V10.3965ZM93.9404 14H97.5439V23H93.9404V14ZM93.8525 11.6797C93.8525 11.2109 94.0195 10.8506 94.3535 10.5986C94.6875 10.3467 95.1562 10.2207 95.7598 10.2207C96.3398 10.2207 96.7969 10.3496 97.1309 10.6074C97.4648 10.8594 97.6318 11.2168 97.6318 11.6797C97.6318 12.1543 97.4648 12.5234 97.1309 12.7871C96.7969 13.0449 96.3398 13.1738 95.7598 13.1738C95.1562 13.1738 94.6875 13.0479 94.3535 12.7959C94.0195 12.5381 93.8525 12.166 93.8525 11.6797ZM100.901 21.9893C99.9229 21.1982 99.4336 20.0352 99.4336 18.5C99.4336 16.9648 99.9229 15.8018 100.901 15.0107C101.88 14.2197 103.189 13.8242 104.83 13.8242C106.371 13.8242 107.648 14.1611 108.662 14.835C109.676 15.5146 110.183 16.4961 110.183 17.7793H106.271C106.084 17.2402 105.604 16.9707 104.83 16.9707C104.338 16.9707 103.945 17.1113 103.652 17.3926C103.359 17.6738 103.213 18.043 103.213 18.5C103.213 18.957 103.359 19.3262 103.652 19.6074C103.945 19.8887 104.338 20.0293 104.83 20.0293C105.604 20.0293 106.084 19.7598 106.271 19.2207H110.183C110.183 20.498 109.676 21.4766 108.662 22.1562C107.637 22.8359 106.359 23.1758 104.83 23.1758C103.189 23.1758 101.88 22.7803 100.901 21.9893ZM116.027 23H112.063V10.3965H122.936V13.4639H116.027V15.96H121.679V18.8428H116.027V23ZM123.305 20.3896C123.305 19.4404 123.671 18.7373 124.403 18.2803C125.136 17.8291 126.091 17.6035 127.269 17.6035C127.86 17.6035 128.388 17.6533 128.851 17.7529C129.296 17.8467 129.589 17.9521 129.729 18.0693L129.932 18.21V17.0586C129.932 16.7891 129.844 16.5869 129.668 16.4521C129.498 16.3174 129.196 16.25 128.763 16.25C127.972 16.25 127.576 16.5195 127.576 17.0586H123.788C123.788 15.998 124.213 15.1953 125.062 14.6504C125.918 14.0996 127.151 13.8242 128.763 13.8242C130.38 13.8242 131.578 14.085 132.357 14.6064C133.137 15.1279 133.526 15.9453 133.526 17.0586V19.3086C133.526 19.5898 133.559 19.7861 133.623 19.8975C133.693 20.0088 133.813 20.0645 133.983 20.0645L134.247 20.0293V23C133.978 23.1172 133.5 23.1758 132.814 23.1758C132.064 23.1758 131.481 23.0088 131.065 22.6748C130.72 22.4053 130.479 22.1416 130.345 21.8838L130.292 21.7432H130.107C130.049 21.8955 129.94 22.0625 129.782 22.2441C129.63 22.4141 129.448 22.5605 129.237 22.6836C129.009 22.8184 128.684 22.9326 128.262 23.0264C127.846 23.126 127.395 23.1758 126.908 23.1758C125.859 23.1758 124.995 22.9414 124.315 22.4727C123.642 22.0098 123.305 21.3154 123.305 20.3896ZM126.908 20.1348C126.908 20.5215 127.412 20.7148 128.42 20.7148C129.428 20.7148 129.932 20.5215 129.932 20.1348C129.932 19.7539 129.428 19.5635 128.42 19.5635C127.412 19.5635 126.908 19.7539 126.908 20.1348ZM145.058 16.6631V16.8477H141.419V16.6631C141.419 16.2764 141.047 16.0859 140.303 16.0918C139.588 16.0918 139.236 16.2822 139.248 16.6631C139.248 16.874 139.351 17.0205 139.556 17.1025C139.761 17.1846 140.13 17.2256 140.663 17.2256C142.374 17.2256 143.622 17.4658 144.407 17.9463C145.192 18.4268 145.585 19.1768 145.585 20.1963C145.585 21.2217 145.166 21.9746 144.328 22.4551C143.496 22.9355 142.216 23.1758 140.487 23.1758C138.759 23.1758 137.484 22.9414 136.664 22.4727C135.838 22.0039 135.425 21.2188 135.425 20.1172V19.8359H139.063V20.1172C139.063 20.416 139.169 20.624 139.38 20.7412C139.591 20.8525 139.96 20.9082 140.487 20.9082C141.46 20.9082 141.946 20.6943 141.946 20.2666C141.946 20.0322 141.838 19.8594 141.621 19.748C141.404 19.6367 140.985 19.5811 140.364 19.5811C138.747 19.5811 137.549 19.3379 136.77 18.8516C135.996 18.3652 135.609 17.6182 135.609 16.6104C135.609 15.708 136.008 15.0195 136.805 14.5449C137.607 14.0645 138.773 13.8242 140.303 13.8242C143.473 13.8184 145.058 14.7646 145.058 16.6631ZM147.334 19.3965V16.6982H146.2V14.9932L149.136 12.1982H150.938V14H153.381V16.6982H150.938V18.9131C150.938 19.4229 151.063 19.7832 151.315 19.9941C151.567 20.1992 151.957 20.3018 152.484 20.3018C152.912 20.3018 153.223 20.2402 153.416 20.1172L153.565 20.0645V22.877C153.132 23.082 152.584 23.1816 151.922 23.1758C150.328 23.1758 149.165 22.877 148.433 22.2793C147.7 21.6875 147.334 20.7266 147.334 19.3965Z" fill="white"/>
<rect x="25.4561" width="8" height="36" transform="rotate(45 25.4561 0)" fill="#FFEB34"/>
<rect x="0.456055" y="5.65686" width="8" height="36" transform="rotate(-45 0.456055 5.65686)" fill="#FFEB34"/>
<rect x="9.95605" y="15.5" width="8.48533" height="8.48533" transform="rotate(-45 9.95605 15.5)" fill="#FF3434"/>
</svg>
