<?xml version="1.0" encoding="UTF-8"?>
<svg width="14px" height="14px" viewBox="0 0 14 14" version="1.1" xmlns="http://www.w3.org/2000/svg" xmlns:xlink="http://www.w3.org/1999/xlink">
    <!-- Generator: Sketch 58 (84663) - https://sketch.com -->
    <title>percent</title>
    <desc>Created with Sketch.</desc>
    <g id="Page-1" stroke="none" stroke-width="1" fill="none" fill-rule="evenodd">
        <g id="percent" transform="translate(1.000000, 1.000000)" fill="#FFFFFF" fill-rule="nonzero">
            <polygon id="Path" points="10.1364685 0.802921335 0.803168494 10.1362713 1.86383151 11.1969287 11.1971315 1.86357867"></polygon>
            <path d="M2.33341,4.74996 C3.66810356,4.74996 4.75008,3.66798356 4.75008,2.33329 C4.75008,0.998604196 3.66810132,-0.08337 2.33341,-0.08337 C0.998726438,-0.08337 -0.08325,0.998606438 -0.08325,2.33329 C-0.08325,3.66798132 0.998724196,4.74996 2.33341,4.74996 Z M2.33341,3.24996 C1.82715271,3.24996 1.41675,2.83955559 1.41675,2.33329 C1.41675,1.82703356 1.82715356,1.41663 2.33341,1.41663 C2.83967559,1.41663 3.25008,1.82703271 3.25008,2.33329 C3.25008,2.83955644 2.83967644,3.24996 2.33341,3.24996 Z" id="Path"></path>
            <path d="M9.6667,12.0833 C11.0013136,12.0833 12.0833,11.0013136 12.0833,9.6667 C12.0833,8.33200886 11.001336,7.25 9.6667,7.25 C8.33198644,7.25 7.25,8.33198644 7.25,9.6667 C7.25,11.001336 8.33200886,12.0833 9.6667,12.0833 Z M9.6667,10.5833 C9.16042207,10.5833 8.75,10.1728949 8.75,9.6667 C8.75,9.16041356 9.16041356,8.75 9.6667,8.75 C10.1728949,8.75 10.5833,9.16042207 10.5833,9.6667 C10.5833,10.1728864 10.1728864,10.5833 9.6667,10.5833 Z" id="Path"></path>
        </g>
    </g>
</svg>