<svg width="14" height="16" viewBox="0 0 14 16" fill="none" xmlns="http://www.w3.org/2000/svg">
<path d="M11 5.33331C12.1046 5.33331 13 4.43788 13 3.33331C13 2.22874 12.1046 1.33331 11 1.33331C9.89543 1.33331 9 2.22874 9 3.33331C9 4.43788 9.89543 5.33331 11 5.33331Z" stroke="#828282" stroke-width="2" stroke-linecap="round" stroke-linejoin="round"/>
<path d="M3 10C4.10457 10 5 9.10457 5 8C5 6.89543 4.10457 6 3 6C1.89543 6 1 6.89543 1 8C1 9.10457 1.89543 10 3 10Z" stroke="#828282" stroke-width="2" stroke-linecap="round" stroke-linejoin="round"/>
<path d="M11 14.6666C12.1046 14.6666 13 13.7712 13 12.6666C13 11.5621 12.1046 10.6666 11 10.6666C9.89543 10.6666 9 11.5621 9 12.6666C9 13.7712 9.89543 14.6666 11 14.6666Z" stroke="#828282" stroke-width="2" stroke-linecap="round" stroke-linejoin="round"/>
<path d="M4.72656 9.00665L9.2799 11.66" stroke="#828282" stroke-width="2" stroke-linecap="round" stroke-linejoin="round"/>
<path d="M9.27323 4.33997L4.72656 6.9933" stroke="#828282" stroke-width="2" stroke-linecap="round" stroke-linejoin="round"/>
</svg>
