<svg width="16" height="16" viewBox="0 0 16 16" fill="none" xmlns="http://www.w3.org/2000/svg">
<path d="M7.99992 1.33331C4.32392 1.33331 1.33325 4.32398 1.33325 7.99998C1.33325 11.676 4.32392 14.6666 7.99992 14.6666C11.6759 14.6666 14.6666 11.676 14.6666 7.99998C14.6666 4.32398 11.6759 1.33331 7.99992 1.33331ZM8.66659 12H7.33325V10.6666H8.66659V12ZM9.31725 8.74331C9.18659 8.84865 9.06059 8.94931 8.96059 9.04931C8.68859 9.32065 8.66725 9.56731 8.66659 9.57798V9.66665H7.33325V9.55531C7.33325 9.47665 7.35259 8.77065 8.01725 8.10598C8.14725 7.97598 8.30859 7.84398 8.47792 7.70665C8.96725 7.30998 9.28859 7.02065 9.28859 6.62198C9.28084 6.28519 9.14159 5.96481 8.90063 5.72939C8.65967 5.49397 8.33614 5.36221 7.99926 5.36229C7.66238 5.36238 7.33892 5.49431 7.09808 5.72986C6.85724 5.9654 6.71816 6.28586 6.71059 6.62265H5.37725C5.37725 5.17665 6.55392 3.99998 7.99992 3.99998C9.44592 3.99998 10.6226 5.17665 10.6226 6.62265C10.6226 7.68731 9.83659 8.32265 9.31725 8.74331Z" fill="#FD8324"/>
</svg>
