<svg width="292" height="46" viewBox="0 0 292 46" fill="none" xmlns="http://www.w3.org/2000/svg">
<path d="M69.7738 28.7241V38.6933H63.9206V10.3988H75.0027C77.1358 10.3988 79.0089 10.7875 80.6217 11.5648C82.2476 12.3421 83.4963 13.4498 84.3678 14.8878C85.2393 16.3129 85.675 17.9388 85.675 19.7655C85.675 22.538 84.719 24.7274 82.8069 26.3339C80.9079 27.9274 78.274 28.7241 74.9051 28.7241H69.7738ZM69.7738 24.0019H75.0027C76.5505 24.0019 77.7277 23.6392 78.5341 22.9137C79.3536 22.1882 79.7633 21.1518 79.7633 19.8044C79.7633 18.4182 79.3536 17.2975 78.5341 16.4425C77.7147 15.5874 76.583 15.1469 75.1393 15.121H69.7738V24.0019Z" fill="white"/>
<path d="M111.214 10.3988V29.0351C111.214 32.1314 110.239 34.58 108.288 36.3808C106.35 38.1816 103.696 39.0819 100.327 39.0819C97.0107 39.0819 94.3767 38.2075 92.4257 36.4585C90.4746 34.7095 89.4796 32.3063 89.4406 29.2488V10.3988H95.2937V29.0739C95.2937 30.9266 95.736 32.2804 96.6205 33.1354C97.518 33.9775 98.7536 34.3986 100.327 34.3986C103.618 34.3986 105.29 32.6755 105.342 29.2294V10.3988H111.214Z" fill="white"/>
<path d="M116.014 38.6933V10.3988H125.964C129.411 10.3988 132.026 11.0595 133.808 12.381C135.59 13.6895 136.481 15.6133 136.481 18.1526C136.481 19.5388 136.123 20.7631 135.408 21.8254C134.692 22.8748 133.697 23.6457 132.422 24.138C133.879 24.5007 135.024 25.2327 135.856 26.3339C136.702 27.4351 137.125 28.7824 137.125 30.376C137.125 33.0966 136.253 35.1565 134.51 36.5557C132.767 37.9548 130.283 38.6674 127.057 38.6933H116.014ZM121.867 26.3728V34.0099H126.881C128.26 34.0099 129.333 33.686 130.101 33.0383C130.881 32.3776 131.271 31.4707 131.271 30.3177C131.271 27.7266 129.925 26.4116 127.233 26.3728H121.867ZM121.867 22.253H126.199C129.151 22.2011 130.628 21.0287 130.628 18.7356C130.628 17.453 130.25 16.5332 129.496 15.9761C128.754 15.4061 127.577 15.121 125.964 15.121H121.867V22.253Z" fill="white"/>
<path d="M147.387 34.0099H159.815V38.6933H141.534V10.3988H147.387V34.0099Z" fill="white"/>
<path d="M169.415 38.6933H163.561V10.3988H169.415V38.6933Z" fill="white"/>
<path d="M197.159 29.2683C196.938 32.3128 195.806 34.7095 193.764 36.4585C191.735 38.2075 189.055 39.0819 185.726 39.0819C182.084 39.0819 179.216 37.8641 177.121 35.4285C175.04 32.98 174 29.6245 174 25.3622V23.6327C174 20.9121 174.481 18.5153 175.443 16.4425C176.406 14.3696 177.778 12.7826 179.56 11.6814C181.355 10.5672 183.436 10.0102 185.804 10.0102C189.081 10.0102 191.722 10.8846 193.725 12.6336C195.728 14.3826 196.886 16.8376 197.198 19.9987H191.345C191.202 18.172 190.688 16.8506 189.803 16.0344C188.932 15.2052 187.599 14.7907 185.804 14.7907C183.853 14.7907 182.389 15.4903 181.414 16.8894C180.451 18.2757 179.957 20.4327 179.931 23.3606V25.4983C179.931 28.5557 180.393 30.7905 181.316 32.2027C182.253 33.6148 183.722 34.3209 185.726 34.3209C187.534 34.3209 188.88 33.9128 189.764 33.0966C190.662 32.2674 191.176 30.9913 191.306 29.2683H197.159Z" fill="white"/>
<path d="M218.094 27.1306H206.856V38.6933H201.002V10.3988H219.498V15.121H206.856V22.4279H218.094V27.1306Z" fill="white"/>
<path d="M235.185 32.8634H224.922L222.971 38.6933H216.747L227.322 10.3988H232.746L243.379 38.6933H237.156L235.185 32.8634ZM226.503 28.1412H233.605L230.034 17.5502L226.503 28.1412Z" fill="white"/>
<path d="M260.763 31.2699C260.763 30.1687 260.373 29.3266 259.593 28.7436C258.812 28.1476 257.408 27.5258 255.379 26.878C253.349 26.2173 251.743 25.5695 250.559 24.9347C247.334 23.1987 245.721 20.8603 245.721 17.9194C245.721 16.3907 246.15 15.0304 247.008 13.8385C247.88 12.6336 249.122 11.6943 250.735 11.0207C252.361 10.347 254.182 10.0102 256.198 10.0102C258.227 10.0102 260.035 10.3794 261.622 11.1178C263.209 11.8433 264.438 12.8733 265.309 14.2077C266.194 15.5421 266.636 17.0579 266.636 18.755H260.783C260.783 17.4595 260.373 16.4554 259.554 15.7429C258.734 15.0174 257.583 14.6546 256.1 14.6546C254.67 14.6546 253.558 14.9591 252.764 15.568C251.971 16.1639 251.574 16.9542 251.574 17.9388C251.574 18.8587 252.036 19.6295 252.959 20.2514C253.896 20.8732 255.268 21.4562 257.076 22.0003C260.406 22.9979 262.832 24.2351 264.353 25.712C265.875 27.1889 266.636 29.0286 266.636 31.231C266.636 33.6796 265.706 35.6034 263.846 37.0026C261.986 38.3888 259.482 39.0819 256.335 39.0819C254.149 39.0819 252.159 38.6868 250.364 37.8965C248.569 37.0933 247.197 35.9986 246.248 34.6124C245.311 33.2261 244.843 31.6197 244.843 29.793H250.715C250.715 32.9152 252.589 34.4763 256.335 34.4763C257.726 34.4763 258.812 34.1978 259.593 33.6407C260.373 33.0707 260.763 32.2804 260.763 31.2699Z" fill="white"/>
<path d="M292 15.121H283.298V38.6933H277.445V15.121H268.86V10.3988H292V15.121Z" fill="white"/>
<path d="M23.0914 13.6905L36.8364 0.000153444L46.183 9.30959L32.438 22.9999L23.0914 13.6905Z" fill="white"/>
<path d="M0 36.6906L13.745 23.0002L23.0917 32.3097L9.34662 46L0 36.6906Z" fill="white"/>
<path d="M0 9.30944L9.34662 0L23.0914 13.6905L13.745 23.0002L0 9.30944Z" fill="white"/>
<path d="M23.0917 32.3097L32.438 22.9999L46.183 36.6904L36.8364 45.9998L23.0917 32.3097Z" fill="white"/>
</svg>
